<svg width="418" height="418" xmlns="http://www.w3.org/2000/svg" xmlns:xlink="http://www.w3.org/1999/xlink" xml:space="preserve" overflow="hidden"><defs><linearGradient x1="168.242" y1="42.4101" x2="-46.1742" y2="166.203" gradientUnits="userSpaceOnUse" spreadMethod="reflect" id="stroke0"><stop offset="0" stop-color="#7E56C3"/><stop offset="0.0263158" stop-color="#7F55C2"/><stop offset="0.0526316" stop-color="#8155C2"/><stop offset="0.0789474" stop-color="#8355C2"/><stop offset="0.105263" stop-color="#8555C2"/><stop offset="0.131579" stop-color="#8755C2"/><stop offset="0.157895" stop-color="#8855C2"/><stop offset="0.184211" stop-color="#8A55C2"/><stop offset="0.210526" stop-color="#8B55C2"/><stop offset="0.236842" stop-color="#8D55C1"/><stop offset="0.263158" stop-color="#8F55C1"/><stop offset="0.289474" stop-color="#9054C1"/><stop offset="0.315789" stop-color="#9154C1"/><stop offset="0.342105" stop-color="#9354C0"/><stop offset="0.368421" stop-color="#9454C0"/><stop offset="0.394737" stop-color="#9553C0"/><stop offset="0.421053" stop-color="#9753BF"/><stop offset="0.447368" stop-color="#9853BF"/><stop offset="0.473684" stop-color="#9953BE"/><stop offset="0.5" stop-color="#9A52BE"/><stop offset="0.526316" stop-color="#9B52BD"/><stop offset="0.552632" stop-color="#9C52BD"/><stop offset="0.578947" stop-color="#9D51BC"/><stop offset="0.605263" stop-color="#9E51BC"/><stop offset="0.631579" stop-color="#9F50BB"/><stop offset="0.657895" stop-color="#9F50BB"/><stop offset="0.684211" stop-color="#A050BA"/><stop offset="0.710526" stop-color="#A14FBA"/><stop offset="0.736842" stop-color="#A14FB9"/><stop offset="0.763158" stop-color="#A24EB8"/><stop offset="0.789474" stop-color="#A24EB8"/><stop offset="0.815789" stop-color="#A34DB7"/><stop offset="0.842105" stop-color="#A34DB6"/><stop offset="0.868421" stop-color="#A44CB5"/><stop offset="0.894737" stop-color="#A44CB5"/><stop offset="0.921053" stop-color="#A44BB4"/><stop offset="0.947368" stop-color="#A44BB3"/><stop offset="0.973684" stop-color="#A44AB2"/><stop offset="1" stop-color="#A54AB2"/></linearGradient><linearGradient x1="2041.49" y1="758.073" x2="2255.54" y2="894.54" gradientUnits="userSpaceOnUse" spreadMethod="reflect" id="stroke1"><stop offset="0" stop-color="#5F5BE7"/><stop offset="0.97" stop-color="#6958E6"/><stop offset="1" stop-color="#6958E6"/></linearGradient><linearGradient x1="2095.25" y1="765.25" x2="2470.75" y2="1140.75" gradientUnits="userSpaceOnUse" spreadMethod="reflect" id="stroke2"><stop offset="0" stop-color="#4161EB"/><stop offset="0.25" stop-color="#6B58E6"/><stop offset="0.5" stop-color="#9650DB"/><stop offset="0.75" stop-color="#B1458F"/><stop offset="1" stop-color="#FF579A"/></linearGradient><linearGradient x1="139" y1="7.49998" x2="-35" y2="181.5" gradientUnits="userSpaceOnUse" spreadMethod="reflect" id="stroke3"><stop offset="0" stop-color="#4161EB"/><stop offset="0.25" stop-color="#6B58E6"/><stop offset="0.5" stop-color="#9650DB"/><stop offset="0.75" stop-color="#B1458F"/><stop offset="1" stop-color="#FF579A"/></linearGradient></defs><g transform="translate(-2073 -708)"><path d="M7.41196 213C6.34765 208.613 5.28352 204.227 4.12804 191.325 2.97257 178.422 1.08724 155.567 0.479112 135.587-0.129013 115.607-0.189789 88.7698 0.479112 71.444 1.14801 54.1183 2.72928 42.2482 4.49288 31.6315 6.25648 21.0149 8.68916 12.9047 11.0609 7.74375 13.4326 2.5828 15.3179 1.69819 18.7234 0.665994 22.1289-0.366198 26.0819-0.292296 31.4944 1.55082 36.9069 3.39395 42.502 5.82695 51.1984 11.7252 59.8949 17.6234 71.2063 25.807 83.6732 36.9398 96.1402 48.0727 111.07 63.2972 126 78.5218" stroke="url(#stroke0)" stroke-width="27.5" stroke-miterlimit="8" fill="none" fill-rule="evenodd" transform="matrix(-1 0 0 1 2477 722)"/><path d="M2094.47 935C2093.4 930.613 2092.33 926.227 2091.16 913.324 2090 900.422 2088.1 877.567 2087.48 857.586 2086.87 837.606 2086.81 810.77 2087.48 793.444 2088.16 776.118 2089.75 764.248 2091.53 753.631 2093.31 743.015 2095.76 734.905 2098.15 729.744 2100.54 724.583 2102.44 723.698 2105.87 722.666 2109.3 721.634 2113.29 721.708 2118.74 723.551 2124.2 725.394 2129.84 727.827 2138.6 733.725 2147.37 739.623 2158.77 747.807 2171.34 758.94 2183.9 770.073 2198.95 785.297 2214 800.522" stroke="url(#stroke1)" stroke-width="27.5" stroke-miterlimit="8" fill="none" fill-rule="evenodd"/><path d="M2094 953C2094 865.187 2178.62 794 2283 794 2387.38 794 2472 865.187 2472 953 2472 1040.81 2387.38 1112 2283 1112 2178.62 1112 2094 1040.81 2094 953Z" stroke="url(#stroke2)" stroke-width="27.5" stroke-miterlimit="8" fill="none" fill-rule="evenodd"/><path d="M0 0 62.504 0 104 41.4961 104 189 0 189Z" stroke="url(#stroke3)" stroke-width="27.5" stroke-miterlimit="8" fill="none" fill-rule="evenodd" transform="matrix(-1 0 0 1 2335 859)"/></g></svg>